<svg width="24" height="24" viewBox="0 0 24 24" fill="none" xmlns="http://www.w3.org/2000/svg">
<path d="M4.96816 2.6847C4.96816 1.31498 3.8538 0.200623 2.48408 0.200623C1.11436 0.200623 0 1.31498 0 2.6847C0 4.05443 1.11436 5.16879 2.48408 5.16879C3.8538 5.16879 4.96816 4.05443 4.96816 2.6847ZM2.48408 3.67834C1.93619 3.67834 1.49045 3.23259 1.49045 2.6847C1.49045 2.13681 1.93619 1.69107 2.48408 1.69107C3.03197 1.69107 3.47771 2.13681 3.47771 2.6847C3.47771 3.23259 3.03197 3.67834 2.48408 3.67834Z" fill="black"/>
<path d="M14.7701 22.3089C9.75689 22.3089 5.67838 18.2304 5.67838 13.2172C5.67838 8.20402 9.75689 4.12546 14.7701 4.12546C18.0517 4.12546 21.0905 5.90486 22.7007 8.7693L24 8.03893C22.1262 4.70569 18.5895 2.63501 14.7701 2.63501C8.93506 2.63501 4.18793 7.38214 4.18793 13.2172C4.18793 19.0523 8.93506 23.7994 14.7701 23.7994C18.5895 23.7994 22.1262 21.7287 24 18.3955L22.7008 17.6651C21.0905 20.5295 18.0517 22.3089 14.7701 22.3089Z" fill="black"/>
</svg>
